<svg width="1120" height="603" viewBox="0 0 1120 603" fill="none" xmlns="http://www.w3.org/2000/svg">
<rect x="544.501" y="82.2673" width="283.775" height="283.775" rx="38.5" transform="rotate(45 544.501 82.2673)" stroke="#553FA9" stroke-width="3"/>
<g filter="url(#filter0_d_91_930)">
<rect x="130.947" y="71.7141" width="171.338" height="171.338" rx="25" transform="rotate(45 130.947 71.7141)" fill="#FEA52F"/>
<rect x="130.947" y="78.7852" width="161.338" height="161.338" rx="20" transform="rotate(45 130.947 78.7852)" stroke="#FEC137" stroke-width="10"/>
</g>
<g filter="url(#filter1_d_91_930)">
<rect x="989.054" y="6" width="171.338" height="171.338" rx="25" transform="rotate(45 989.054 6)" fill="#4CC9A7"/>
<rect x="989.054" y="13.0711" width="161.338" height="161.338" rx="20" transform="rotate(45 989.054 13.0711)" stroke="#56EAC4" stroke-width="10"/>
</g>
<g filter="url(#filter2_d_91_930)">
<rect x="352.208" y="139.588" width="231.032" height="231.032" rx="25" transform="rotate(45 352.208 139.588)" fill="#71C4F8"/>
<rect x="352.208" y="146.659" width="221.032" height="221.032" rx="20" transform="rotate(45 352.208 146.659)" stroke="#85E5FE" stroke-width="10"/>
</g>
<g filter="url(#filter3_d_91_930)">
<rect x="573.208" y="293.588" width="201.893" height="201.893" rx="25" transform="rotate(45 573.208 293.588)" fill="#9EBB3C"/>
<rect x="573.208" y="300.659" width="191.893" height="191.893" rx="20" transform="rotate(45 573.208 300.659)" stroke="#BBDC43" stroke-width="10"/>
</g>
<rect x="973.575" y="357.811" width="171.631" height="171.631" rx="28.5" transform="rotate(45 973.575 357.811)" stroke="#553FA9" stroke-width="3"/>
<rect x="544.741" y="171.326" width="72.6369" height="72.6369" rx="15" transform="rotate(45 544.741 171.326)" fill="#553FA9"/>
<rect x="853.132" y="433.844" width="65.3671" height="65.3671" rx="15" transform="rotate(45 853.132 433.844)" fill="#553FA9"/>
<rect x="283.007" y="69.1243" width="65.7061" height="65.7061" rx="15" transform="rotate(45 283.007 69.1243)" fill="#553FA9"/>
<rect x="169.893" y="320.62" width="46.4994" height="46.4994" rx="10" transform="rotate(45 169.893 320.62)" fill="#553FA9"/>
<rect x="671.774" y="101.188" width="42.3255" height="42.3255" rx="10" transform="rotate(45 671.774 101.188)" fill="#553FA9"/>
<rect x="1050.13" y="240.462" width="45.2519" height="45.2519" rx="10" transform="rotate(45 1050.13 240.462)" fill="#553FA9"/>
<rect x="414.876" y="458.893" width="31.975" height="31.975" rx="8" transform="rotate(45 414.876 458.893)" fill="#553FA9"/>
<g filter="url(#filter4_d_91_930)">
<rect x="784.208" y="90.5881" width="258.973" height="258.973" rx="25" transform="rotate(45 784.208 90.5881)" fill="#C86BED"/>
<rect x="784.208" y="97.6592" width="248.973" height="248.973" rx="20" transform="rotate(45 784.208 97.6592)" stroke="#EA7EFF" stroke-width="10"/>
</g>
<g filter="url(#filter5_d_91_930)">
<rect x="981.208" y="293.588" width="159.244" height="159.244" rx="25" transform="rotate(45 981.208 293.588)" fill="#EF693E"/>
<rect x="981.208" y="300.659" width="149.244" height="149.244" rx="20" transform="rotate(45 981.208 300.659)" stroke="#FF7949" stroke-width="10"/>
</g>
<path d="M91.8669 201.588V169.488L94.0669 171.188H84.4169V165.088H98.9169V201.588H91.8669ZM119.007 202.538C116.141 202.538 113.674 201.971 111.607 200.838C109.574 199.705 108.007 198.205 106.907 196.338C105.841 194.438 105.307 192.371 105.307 190.138H112.157C112.157 191.405 112.441 192.521 113.007 193.488C113.607 194.455 114.424 195.221 115.457 195.788C116.491 196.321 117.691 196.588 119.057 196.588C120.491 196.588 121.724 196.288 122.757 195.688C123.791 195.088 124.574 194.271 125.107 193.238C125.674 192.205 125.957 191.021 125.957 189.688C125.957 188.388 125.674 187.221 125.107 186.188C124.574 185.121 123.791 184.288 122.757 183.688C121.757 183.055 120.541 182.738 119.107 182.738C117.907 182.738 116.774 182.971 115.707 183.438C114.641 183.905 113.807 184.521 113.207 185.288H106.657L108.507 165.088H129.657V171.138H111.607L114.107 169.188L112.907 181.788L111.207 181.288C112.174 180.188 113.357 179.271 114.757 178.538C116.157 177.805 117.924 177.438 120.057 177.438C122.757 177.438 125.057 177.988 126.957 179.088C128.857 180.188 130.307 181.655 131.307 183.488C132.307 185.288 132.807 187.255 132.807 189.388V190.038C132.807 192.205 132.274 194.238 131.207 196.138C130.141 198.038 128.574 199.588 126.507 200.788C124.474 201.955 121.974 202.538 119.007 202.538ZM135.593 194.038V186.338L149.893 164.088L155.243 167.738L142.643 187.438L143.243 188.438H165.643V194.038H135.593ZM154.693 201.588V175.438H161.243V201.588H154.693Z" fill="white"/>
<path d="M87.4491 230.588V220.368H89.4371V230.588H87.4491ZM80.7431 230.588V220.368H82.7311V230.588H80.7431ZM82.3671 226.346V224.596H87.8131V226.346H82.3671ZM96.1261 230.588V228.334H95.8041V225.828C95.8041 225.389 95.6967 225.063 95.4821 224.848C95.2674 224.633 94.9361 224.526 94.4881 224.526C94.2547 224.526 93.9747 224.531 93.6481 224.54C93.3214 224.549 92.9901 224.563 92.6541 224.582C92.3274 224.591 92.0334 224.605 91.7721 224.624V222.972C91.9867 222.953 92.2294 222.935 92.5001 222.916C92.7707 222.897 93.0461 222.888 93.3261 222.888C93.6154 222.879 93.8861 222.874 94.1381 222.874C94.9221 222.874 95.5707 222.977 96.0841 223.182C96.6067 223.387 96.9987 223.709 97.2601 224.148C97.5307 224.587 97.6661 225.161 97.6661 225.87V230.588H96.1261ZM93.6761 230.784C93.1254 230.784 92.6401 230.686 92.2201 230.49C91.8094 230.294 91.4874 230.014 91.2541 229.65C91.0301 229.286 90.9181 228.847 90.9181 228.334C90.9181 227.774 91.0534 227.317 91.3241 226.962C91.6041 226.607 91.9914 226.341 92.4861 226.164C92.9901 225.987 93.5781 225.898 94.2501 225.898H96.0141V227.06H94.2221C93.7741 227.06 93.4287 227.172 93.1861 227.396C92.9527 227.611 92.8361 227.891 92.8361 228.236C92.8361 228.581 92.9527 228.861 93.1861 229.076C93.4287 229.291 93.7741 229.398 94.2221 229.398C94.4927 229.398 94.7401 229.351 94.9641 229.258C95.1974 229.155 95.3887 228.987 95.5381 228.754C95.6967 228.511 95.7854 228.185 95.8041 227.774L96.2801 228.32C96.2334 228.852 96.1027 229.3 95.8881 229.664C95.6827 230.028 95.3934 230.308 95.0201 230.504C94.6561 230.691 94.2081 230.784 93.6761 230.784ZM99.4705 233.388V222.986H101.011V226.262L100.773 226.248C100.81 225.473 100.969 224.825 101.249 224.302C101.538 223.779 101.921 223.392 102.397 223.14C102.873 222.879 103.405 222.748 103.993 222.748C104.534 222.748 105.019 222.846 105.449 223.042C105.887 223.238 106.261 223.513 106.569 223.868C106.886 224.223 107.129 224.638 107.297 225.114C107.465 225.581 107.549 226.085 107.549 226.626V226.92C107.549 227.471 107.465 227.984 107.297 228.46C107.138 228.927 106.9 229.342 106.583 229.706C106.275 230.061 105.901 230.341 105.463 230.546C105.024 230.742 104.534 230.84 103.993 230.84C103.423 230.84 102.901 230.723 102.425 230.49C101.958 230.247 101.58 229.879 101.291 229.384C101.001 228.88 100.838 228.231 100.801 227.438L101.417 228.376V233.388H99.4705ZM103.503 229.202C103.923 229.202 104.287 229.099 104.595 228.894C104.912 228.689 105.159 228.404 105.337 228.04C105.514 227.667 105.603 227.247 105.603 226.78C105.603 226.295 105.514 225.875 105.337 225.52C105.159 225.165 104.912 224.89 104.595 224.694C104.287 224.489 103.923 224.386 103.503 224.386C103.12 224.386 102.765 224.47 102.439 224.638C102.121 224.806 101.86 225.053 101.655 225.38C101.459 225.707 101.361 226.099 101.361 226.556V227.116C101.361 227.555 101.463 227.928 101.669 228.236C101.874 228.544 102.14 228.782 102.467 228.95C102.793 229.118 103.139 229.202 103.503 229.202ZM108.98 233.388V222.986H110.52V226.262L110.282 226.248C110.319 225.473 110.478 224.825 110.758 224.302C111.047 223.779 111.43 223.392 111.906 223.14C112.382 222.879 112.914 222.748 113.502 222.748C114.043 222.748 114.528 222.846 114.958 223.042C115.396 223.238 115.77 223.513 116.078 223.868C116.395 224.223 116.638 224.638 116.806 225.114C116.974 225.581 117.058 226.085 117.058 226.626V226.92C117.058 227.471 116.974 227.984 116.806 228.46C116.647 228.927 116.409 229.342 116.092 229.706C115.784 230.061 115.41 230.341 114.972 230.546C114.533 230.742 114.043 230.84 113.502 230.84C112.932 230.84 112.41 230.723 111.934 230.49C111.467 230.247 111.089 229.879 110.8 229.384C110.51 228.88 110.347 228.231 110.31 227.438L110.926 228.376V233.388H108.98ZM113.012 229.202C113.432 229.202 113.796 229.099 114.104 228.894C114.421 228.689 114.668 228.404 114.846 228.04C115.023 227.667 115.112 227.247 115.112 226.78C115.112 226.295 115.023 225.875 114.846 225.52C114.668 225.165 114.421 224.89 114.104 224.694C113.796 224.489 113.432 224.386 113.012 224.386C112.629 224.386 112.274 224.47 111.948 224.638C111.63 224.806 111.369 225.053 111.164 225.38C110.968 225.707 110.87 226.099 110.87 226.556V227.116C110.87 227.555 110.972 227.928 111.178 228.236C111.383 228.544 111.649 228.782 111.976 228.95C112.302 229.118 112.648 229.202 113.012 229.202ZM118.101 233.584V231.918H119.529C119.799 231.918 120.023 231.881 120.201 231.806C120.387 231.741 120.541 231.629 120.663 231.47C120.784 231.321 120.877 231.111 120.943 230.84L122.987 222.986H124.849L122.595 231.26C122.445 231.829 122.235 232.282 121.965 232.618C121.694 232.963 121.344 233.211 120.915 233.36C120.495 233.509 119.972 233.584 119.347 233.584H118.101ZM120.467 230.42V228.88H122.091V230.42H120.467ZM119.809 230.42L117.345 222.986H119.305L121.643 230.42H119.809ZM133.407 230.854C132.483 230.854 131.69 230.691 131.027 230.364C130.365 230.037 129.823 229.613 129.403 229.09C128.993 228.567 128.689 227.998 128.493 227.382C128.297 226.766 128.199 226.173 128.199 225.604V225.296C128.199 224.661 128.297 224.036 128.493 223.42C128.699 222.804 129.011 222.244 129.431 221.74C129.851 221.236 130.383 220.835 131.027 220.536C131.681 220.228 132.451 220.074 133.337 220.074C134.261 220.074 135.064 220.242 135.745 220.578C136.436 220.905 136.987 221.371 137.397 221.978C137.808 222.575 138.055 223.275 138.139 224.078H136.137C136.063 223.611 135.895 223.219 135.633 222.902C135.381 222.575 135.059 222.333 134.667 222.174C134.275 222.006 133.832 221.922 133.337 221.922C132.833 221.922 132.385 222.011 131.993 222.188C131.601 222.356 131.275 222.599 131.013 222.916C130.752 223.233 130.551 223.607 130.411 224.036C130.281 224.465 130.215 224.941 130.215 225.464C130.215 225.968 130.281 226.435 130.411 226.864C130.551 227.293 130.757 227.671 131.027 227.998C131.298 228.315 131.629 228.563 132.021 228.74C132.423 228.917 132.885 229.006 133.407 229.006C134.173 229.006 134.817 228.819 135.339 228.446C135.871 228.063 136.193 227.531 136.305 226.85H138.307C138.214 227.578 137.967 228.245 137.565 228.852C137.164 229.459 136.613 229.944 135.913 230.308C135.213 230.672 134.378 230.854 133.407 230.854ZM139.649 230.588V220.368H141.595V230.588H139.649ZM138.697 221.824V220.368H141.595V221.824H138.697ZM143.901 230.588V222.986H145.847V230.588H143.901ZM142.837 224.442V222.986H145.847V224.442H142.837ZM144.615 222.076C144.232 222.076 143.947 221.978 143.761 221.782C143.583 221.577 143.495 221.325 143.495 221.026C143.495 220.709 143.583 220.452 143.761 220.256C143.947 220.06 144.232 219.962 144.615 219.962C144.997 219.962 145.277 220.06 145.455 220.256C145.632 220.452 145.721 220.709 145.721 221.026C145.721 221.325 145.632 221.577 145.455 221.782C145.277 221.978 144.997 222.076 144.615 222.076ZM151.211 230.854C150.558 230.854 149.984 230.742 149.489 230.518C149.004 230.294 148.598 229.995 148.271 229.622C147.954 229.239 147.711 228.815 147.543 228.348C147.385 227.881 147.305 227.405 147.305 226.92V226.654C147.305 226.15 147.385 225.665 147.543 225.198C147.711 224.722 147.954 224.302 148.271 223.938C148.598 223.565 148.999 223.271 149.475 223.056C149.951 222.832 150.502 222.72 151.127 222.72C151.949 222.72 152.635 222.902 153.185 223.266C153.745 223.621 154.165 224.092 154.445 224.68C154.725 225.259 154.865 225.884 154.865 226.556V227.256H148.131V226.066H153.647L153.045 226.654C153.045 226.169 152.975 225.753 152.835 225.408C152.695 225.063 152.481 224.797 152.191 224.61C151.911 224.423 151.557 224.33 151.127 224.33C150.698 224.33 150.334 224.428 150.035 224.624C149.737 224.82 149.508 225.105 149.349 225.478C149.2 225.842 149.125 226.281 149.125 226.794C149.125 227.27 149.2 227.695 149.349 228.068C149.499 228.432 149.727 228.721 150.035 228.936C150.343 229.141 150.735 229.244 151.211 229.244C151.687 229.244 152.075 229.151 152.373 228.964C152.672 228.768 152.863 228.53 152.947 228.25H154.739C154.627 228.773 154.413 229.23 154.095 229.622C153.778 230.014 153.372 230.317 152.877 230.532C152.392 230.747 151.837 230.854 151.211 230.854ZM156.211 230.588V222.986H157.751V226.248H157.611C157.611 225.473 157.714 224.829 157.919 224.316C158.124 223.793 158.428 223.401 158.829 223.14C159.24 222.879 159.748 222.748 160.355 222.748H160.439C161.344 222.748 162.03 223.042 162.497 223.63C162.964 224.209 163.197 225.077 163.197 226.234V230.588H161.251V226.066C161.251 225.599 161.116 225.221 160.845 224.932C160.584 224.643 160.22 224.498 159.753 224.498C159.277 224.498 158.89 224.647 158.591 224.946C158.302 225.235 158.157 225.627 158.157 226.122V230.588H156.211ZM168.313 230.686C167.613 230.686 167.034 230.597 166.577 230.42C166.129 230.233 165.793 229.925 165.569 229.496C165.345 229.057 165.233 228.469 165.233 227.732L165.247 220.844H167.067L167.053 227.858C167.053 228.231 167.151 228.521 167.347 228.726C167.552 228.922 167.842 229.02 168.215 229.02H169.405V230.686H168.313ZM164.029 224.414V222.986H169.405V224.414H164.029Z" fill="white"/>
<path d="M959.841 135.588V128.588C959.841 127.055 960.074 125.721 960.541 124.588C961.041 123.455 961.841 122.455 962.941 121.588C964.074 120.688 965.557 119.838 967.391 119.038L973.591 116.288C975.124 115.588 976.291 114.738 977.091 113.738C977.924 112.705 978.341 111.388 978.341 109.788C978.341 108.021 977.807 106.621 976.741 105.588C975.707 104.521 974.224 103.988 972.291 103.988C970.357 103.988 968.857 104.521 967.791 105.588C966.757 106.655 966.241 108.138 966.241 110.038H959.391C959.391 107.771 959.874 105.738 960.841 103.938C961.807 102.105 963.241 100.671 965.141 99.6381C967.041 98.5715 969.424 98.0381 972.291 98.0381C975.157 98.0381 977.541 98.5548 979.441 99.5881C981.341 100.621 982.774 102.005 983.741 103.738C984.707 105.438 985.191 107.338 985.191 109.438V110.088C985.191 112.821 984.424 115.105 982.891 116.938C981.357 118.738 979.107 120.305 976.141 121.638L969.941 124.388C968.774 124.888 967.957 125.421 967.491 125.988C967.024 126.521 966.791 127.255 966.791 128.188V131.388L965.091 129.538H985.341V135.588H959.841ZM1004.74 136.638C1002.04 136.638 999.738 136.188 997.838 135.288C995.972 134.355 994.455 133.088 993.288 131.488C992.122 129.888 991.272 128.038 990.738 125.938C990.205 123.805 989.938 121.555 989.938 119.188V116.988C989.938 111.021 991.438 106.505 994.438 103.438C997.472 100.338 1001.91 98.7881 1007.74 98.7881C1009.01 98.7881 1010.19 98.8215 1011.29 98.8881C1012.39 98.9548 1013.49 99.0548 1014.59 99.1881V105.138C1013.49 105.005 1012.36 104.905 1011.19 104.838C1010.06 104.771 1008.82 104.738 1007.49 104.738C1004.69 104.738 1002.49 105.221 1000.89 106.188C999.288 107.155 998.138 108.571 997.438 110.438C996.772 112.305 996.438 114.621 996.438 117.388V120.638L994.838 122.938C994.872 120.371 995.372 118.255 996.338 116.588C997.338 114.888 998.705 113.621 1000.44 112.788C1002.17 111.921 1004.16 111.488 1006.39 111.488C1008.99 111.488 1011.21 112.005 1013.04 113.038C1014.87 114.071 1016.27 115.505 1017.24 117.338C1018.24 119.171 1018.74 121.305 1018.74 123.738C1018.74 126.271 1018.17 128.521 1017.04 130.488C1015.91 132.421 1014.29 133.938 1012.19 135.038C1010.12 136.105 1007.64 136.638 1004.74 136.638ZM1004.59 130.688C1006.16 130.688 1007.49 130.405 1008.59 129.838C1009.69 129.238 1010.52 128.421 1011.09 127.388C1011.66 126.355 1011.94 125.171 1011.94 123.838C1011.94 122.471 1011.66 121.271 1011.09 120.238C1010.56 119.205 1009.76 118.405 1008.69 117.838C1007.62 117.271 1006.34 116.988 1004.84 116.988C1003.41 116.988 1002.09 117.255 1000.89 117.788C999.722 118.288 998.788 119.055 998.088 120.088C997.422 121.088 997.088 122.338 997.088 123.838C997.088 125.138 997.355 126.305 997.888 127.338C998.455 128.371 999.288 129.188 1000.39 129.788C1001.52 130.388 1002.92 130.688 1004.59 130.688Z" fill="white"/>
<path d="M951.449 164.588V154.368H953.437V164.588H951.449ZM944.743 164.588V154.368H946.731V164.588H944.743ZM946.367 160.346V158.596H951.813V160.346H946.367ZM960.126 164.588V162.334H959.804V159.828C959.804 159.389 959.697 159.063 959.482 158.848C959.268 158.633 958.936 158.526 958.488 158.526C958.255 158.526 957.975 158.531 957.648 158.54C957.322 158.549 956.99 158.563 956.654 158.582C956.328 158.591 956.034 158.605 955.772 158.624V156.972C955.987 156.953 956.23 156.935 956.5 156.916C956.771 156.897 957.046 156.888 957.326 156.888C957.616 156.879 957.886 156.874 958.138 156.874C958.922 156.874 959.571 156.977 960.084 157.182C960.607 157.387 960.999 157.709 961.26 158.148C961.531 158.587 961.666 159.161 961.666 159.87V164.588H960.126ZM957.676 164.784C957.126 164.784 956.64 164.686 956.22 164.49C955.81 164.294 955.488 164.014 955.254 163.65C955.03 163.286 954.918 162.847 954.918 162.334C954.918 161.774 955.054 161.317 955.324 160.962C955.604 160.607 955.992 160.341 956.486 160.164C956.99 159.987 957.578 159.898 958.25 159.898H960.014V161.06H958.222C957.774 161.06 957.429 161.172 957.186 161.396C956.953 161.611 956.836 161.891 956.836 162.236C956.836 162.581 956.953 162.861 957.186 163.076C957.429 163.291 957.774 163.398 958.222 163.398C958.493 163.398 958.74 163.351 958.964 163.258C959.198 163.155 959.389 162.987 959.538 162.754C959.697 162.511 959.786 162.185 959.804 161.774L960.28 162.32C960.234 162.852 960.103 163.3 959.888 163.664C959.683 164.028 959.394 164.308 959.02 164.504C958.656 164.691 958.208 164.784 957.676 164.784ZM963.471 167.388V156.986H965.011V160.262L964.773 160.248C964.81 159.473 964.969 158.825 965.249 158.302C965.538 157.779 965.921 157.392 966.397 157.14C966.873 156.879 967.405 156.748 967.993 156.748C968.534 156.748 969.019 156.846 969.449 157.042C969.887 157.238 970.261 157.513 970.569 157.868C970.886 158.223 971.129 158.638 971.297 159.114C971.465 159.581 971.549 160.085 971.549 160.626V160.92C971.549 161.471 971.465 161.984 971.297 162.46C971.138 162.927 970.9 163.342 970.583 163.706C970.275 164.061 969.901 164.341 969.463 164.546C969.024 164.742 968.534 164.84 967.993 164.84C967.423 164.84 966.901 164.723 966.425 164.49C965.958 164.247 965.58 163.879 965.291 163.384C965.001 162.88 964.838 162.231 964.801 161.438L965.417 162.376V167.388H963.471ZM967.503 163.202C967.923 163.202 968.287 163.099 968.595 162.894C968.912 162.689 969.159 162.404 969.337 162.04C969.514 161.667 969.603 161.247 969.603 160.78C969.603 160.295 969.514 159.875 969.337 159.52C969.159 159.165 968.912 158.89 968.595 158.694C968.287 158.489 967.923 158.386 967.503 158.386C967.12 158.386 966.765 158.47 966.439 158.638C966.121 158.806 965.86 159.053 965.655 159.38C965.459 159.707 965.361 160.099 965.361 160.556V161.116C965.361 161.555 965.463 161.928 965.669 162.236C965.874 162.544 966.14 162.782 966.467 162.95C966.793 163.118 967.139 163.202 967.503 163.202ZM972.98 167.388V156.986H974.52V160.262L974.282 160.248C974.319 159.473 974.478 158.825 974.758 158.302C975.047 157.779 975.43 157.392 975.906 157.14C976.382 156.879 976.914 156.748 977.502 156.748C978.043 156.748 978.528 156.846 978.958 157.042C979.396 157.238 979.77 157.513 980.078 157.868C980.395 158.223 980.638 158.638 980.806 159.114C980.974 159.581 981.058 160.085 981.058 160.626V160.92C981.058 161.471 980.974 161.984 980.806 162.46C980.647 162.927 980.409 163.342 980.092 163.706C979.784 164.061 979.41 164.341 978.972 164.546C978.533 164.742 978.043 164.84 977.502 164.84C976.932 164.84 976.41 164.723 975.934 164.49C975.467 164.247 975.089 163.879 974.8 163.384C974.51 162.88 974.347 162.231 974.31 161.438L974.926 162.376V167.388H972.98ZM977.012 163.202C977.432 163.202 977.796 163.099 978.104 162.894C978.421 162.689 978.668 162.404 978.846 162.04C979.023 161.667 979.112 161.247 979.112 160.78C979.112 160.295 979.023 159.875 978.846 159.52C978.668 159.165 978.421 158.89 978.104 158.694C977.796 158.489 977.432 158.386 977.012 158.386C976.629 158.386 976.274 158.47 975.948 158.638C975.63 158.806 975.369 159.053 975.164 159.38C974.968 159.707 974.87 160.099 974.87 160.556V161.116C974.87 161.555 974.972 161.928 975.178 162.236C975.383 162.544 975.649 162.782 975.976 162.95C976.302 163.118 976.648 163.202 977.012 163.202ZM982.101 167.584V165.918H983.529C983.799 165.918 984.023 165.881 984.201 165.806C984.387 165.741 984.541 165.629 984.663 165.47C984.784 165.321 984.877 165.111 984.943 164.84L986.987 156.986H988.849L986.595 165.26C986.445 165.829 986.235 166.282 985.965 166.618C985.694 166.963 985.344 167.211 984.915 167.36C984.495 167.509 983.972 167.584 983.347 167.584H982.101ZM984.467 164.42V162.88H986.091V164.42H984.467ZM983.809 164.42L981.345 156.986H983.305L985.643 164.42H983.809ZM997.408 164.854C996.484 164.854 995.69 164.691 995.028 164.364C994.365 164.037 993.824 163.613 993.404 163.09C992.993 162.567 992.69 161.998 992.494 161.382C992.298 160.766 992.2 160.173 992.2 159.604V159.296C992.2 158.661 992.298 158.036 992.494 157.42C992.699 156.804 993.012 156.244 993.432 155.74C993.852 155.236 994.384 154.835 995.028 154.536C995.681 154.228 996.451 154.074 997.338 154.074C998.262 154.074 999.064 154.242 999.746 154.578C1000.44 154.905 1000.99 155.371 1001.4 155.978C1001.81 156.575 1002.06 157.275 1002.14 158.078H1000.14C1000.06 157.611 999.895 157.219 999.634 156.902C999.382 156.575 999.06 156.333 998.668 156.174C998.276 156.006 997.832 155.922 997.338 155.922C996.834 155.922 996.386 156.011 995.994 156.188C995.602 156.356 995.275 156.599 995.014 156.916C994.752 157.233 994.552 157.607 994.412 158.036C994.281 158.465 994.216 158.941 994.216 159.464C994.216 159.968 994.281 160.435 994.412 160.864C994.552 161.293 994.757 161.671 995.028 161.998C995.298 162.315 995.63 162.563 996.022 162.74C996.423 162.917 996.885 163.006 997.408 163.006C998.173 163.006 998.817 162.819 999.34 162.446C999.872 162.063 1000.19 161.531 1000.31 160.85H1002.31C1002.21 161.578 1001.97 162.245 1001.57 162.852C1001.16 163.459 1000.61 163.944 999.914 164.308C999.214 164.672 998.378 164.854 997.408 164.854ZM1003.65 164.588V154.368H1005.6V164.588H1003.65ZM1002.7 155.824V154.368H1005.6V155.824H1002.7ZM1007.9 164.588V156.986H1009.85V164.588H1007.9ZM1006.84 158.442V156.986H1009.85V158.442H1006.84ZM1008.61 156.076C1008.23 156.076 1007.95 155.978 1007.76 155.782C1007.58 155.577 1007.49 155.325 1007.49 155.026C1007.49 154.709 1007.58 154.452 1007.76 154.256C1007.95 154.06 1008.23 153.962 1008.61 153.962C1009 153.962 1009.28 154.06 1009.45 154.256C1009.63 154.452 1009.72 154.709 1009.72 155.026C1009.72 155.325 1009.63 155.577 1009.45 155.782C1009.28 155.978 1009 156.076 1008.61 156.076ZM1015.21 164.854C1014.56 164.854 1013.98 164.742 1013.49 164.518C1013 164.294 1012.6 163.995 1012.27 163.622C1011.95 163.239 1011.71 162.815 1011.54 162.348C1011.38 161.881 1011.31 161.405 1011.31 160.92V160.654C1011.31 160.15 1011.38 159.665 1011.54 159.198C1011.71 158.722 1011.95 158.302 1012.27 157.938C1012.6 157.565 1013 157.271 1013.48 157.056C1013.95 156.832 1014.5 156.72 1015.13 156.72C1015.95 156.72 1016.63 156.902 1017.19 157.266C1017.75 157.621 1018.17 158.092 1018.45 158.68C1018.73 159.259 1018.87 159.884 1018.87 160.556V161.256H1012.13V160.066H1017.65L1017.05 160.654C1017.05 160.169 1016.98 159.753 1016.84 159.408C1016.7 159.063 1016.48 158.797 1016.19 158.61C1015.91 158.423 1015.56 158.33 1015.13 158.33C1014.7 158.33 1014.33 158.428 1014.04 158.624C1013.74 158.82 1013.51 159.105 1013.35 159.478C1013.2 159.842 1013.13 160.281 1013.13 160.794C1013.13 161.27 1013.2 161.695 1013.35 162.068C1013.5 162.432 1013.73 162.721 1014.04 162.936C1014.34 163.141 1014.74 163.244 1015.21 163.244C1015.69 163.244 1016.07 163.151 1016.37 162.964C1016.67 162.768 1016.86 162.53 1016.95 162.25H1018.74C1018.63 162.773 1018.41 163.23 1018.1 163.622C1017.78 164.014 1017.37 164.317 1016.88 164.532C1016.39 164.747 1015.84 164.854 1015.21 164.854ZM1020.21 164.588V156.986H1021.75V160.248H1021.61C1021.61 159.473 1021.71 158.829 1021.92 158.316C1022.12 157.793 1022.43 157.401 1022.83 157.14C1023.24 156.879 1023.75 156.748 1024.36 156.748H1024.44C1025.34 156.748 1026.03 157.042 1026.5 157.63C1026.96 158.209 1027.2 159.077 1027.2 160.234V164.588H1025.25V160.066C1025.25 159.599 1025.12 159.221 1024.85 158.932C1024.58 158.643 1024.22 158.498 1023.75 158.498C1023.28 158.498 1022.89 158.647 1022.59 158.946C1022.3 159.235 1022.16 159.627 1022.16 160.122V164.588H1020.21ZM1032.31 164.686C1031.61 164.686 1031.03 164.597 1030.58 164.42C1030.13 164.233 1029.79 163.925 1029.57 163.496C1029.35 163.057 1029.23 162.469 1029.23 161.732L1029.25 154.844H1031.07L1031.05 161.858C1031.05 162.231 1031.15 162.521 1031.35 162.726C1031.55 162.922 1031.84 163.02 1032.22 163.02H1033.41V164.686H1032.31ZM1028.03 158.414V156.986H1033.41V158.414H1028.03Z" fill="white"/>
<path d="M980.449 378.793C982.879 378.793 984.934 379.213 986.614 380.053C988.324 380.863 989.704 381.988 990.754 383.428C991.804 384.868 992.569 386.548 993.049 388.468C993.529 390.358 993.769 392.368 993.769 394.498V396.478C993.769 401.848 992.404 405.928 989.674 408.718C986.974 411.478 982.999 412.858 977.749 412.858C976.609 412.858 975.544 412.828 974.554 412.768C973.564 412.708 972.574 412.618 971.584 412.498V407.143C972.574 407.263 973.579 407.353 974.599 407.413C975.649 407.473 976.774 407.503 977.974 407.503C980.494 407.503 982.474 407.068 983.914 406.198C985.354 405.328 986.374 404.053 986.974 402.373C987.604 400.693 987.919 398.608 987.919 396.118V393.193L989.359 391.123C989.329 393.433 988.864 395.353 987.964 396.883C987.094 398.383 985.879 399.523 984.319 400.303C982.759 401.053 980.974 401.428 978.964 401.428C976.624 401.428 974.629 400.963 972.979 400.033C971.329 399.103 970.054 397.813 969.154 396.163C968.284 394.513 967.849 392.593 967.849 390.403C967.849 388.123 968.359 386.113 969.379 384.373C970.399 382.603 971.839 381.238 973.699 380.278C975.589 379.288 977.839 378.793 980.449 378.793ZM980.584 384.148C979.174 384.148 977.974 384.418 976.984 384.958C975.994 385.468 975.244 386.188 974.734 387.118C974.224 388.048 973.969 389.113 973.969 390.313C973.969 391.543 974.209 392.623 974.689 393.553C975.199 394.483 975.934 395.203 976.894 395.713C977.854 396.223 979.009 396.478 980.359 396.478C981.649 396.478 982.819 396.253 983.869 395.803C984.949 395.323 985.789 394.633 986.389 393.733C987.019 392.803 987.334 391.663 987.334 390.313C987.334 389.143 987.079 388.093 986.569 387.163C986.089 386.233 985.339 385.498 984.319 384.958C983.329 384.418 982.084 384.148 980.584 384.148Z" fill="white"/>
<path d="M954.864 440.588L958.35 430.368H961.598L965.182 440.588H963.138L960.1 431.726L960.814 432.034H959.064L959.792 431.726L956.852 440.588H954.864ZM957.3 437.872L957.93 436.192H962.074L962.69 437.872H957.3ZM968.679 440.588L970.121 433.238H972.361L974.027 440.588H972.487L970.793 433.28H971.605L970.107 440.588H968.679ZM968.105 440.588L968.091 438.992H969.645V440.588H968.105ZM967.321 440.588L965.249 432.986H967.139L969.113 440.588H967.321ZM972.977 440.588V438.992H974.531L974.517 440.588H972.977ZM973.593 440.588L975.343 432.986H977.107L975.273 440.588H973.593ZM982.87 440.588V438.334H982.548V435.828C982.548 435.389 982.44 435.063 982.226 434.848C982.011 434.633 981.68 434.526 981.232 434.526C980.998 434.526 980.718 434.531 980.392 434.54C980.065 434.549 979.734 434.563 979.398 434.582C979.071 434.591 978.777 434.605 978.516 434.624V432.972C978.73 432.953 978.973 432.935 979.244 432.916C979.514 432.897 979.79 432.888 980.07 432.888C980.359 432.879 980.63 432.874 980.882 432.874C981.666 432.874 982.314 432.977 982.828 433.182C983.35 433.387 983.742 433.709 984.004 434.148C984.274 434.587 984.41 435.161 984.41 435.87V440.588H982.87ZM980.42 440.784C979.869 440.784 979.384 440.686 978.964 440.49C978.553 440.294 978.231 440.014 977.998 439.65C977.774 439.286 977.662 438.847 977.662 438.334C977.662 437.774 977.797 437.317 978.068 436.962C978.348 436.607 978.735 436.341 979.23 436.164C979.734 435.987 980.322 435.898 980.994 435.898H982.758V437.06H980.966C980.518 437.06 980.172 437.172 979.93 437.396C979.696 437.611 979.58 437.891 979.58 438.236C979.58 438.581 979.696 438.861 979.93 439.076C980.172 439.291 980.518 439.398 980.966 439.398C981.236 439.398 981.484 439.351 981.708 439.258C981.941 439.155 982.132 438.987 982.282 438.754C982.44 438.511 982.529 438.185 982.548 437.774L983.024 438.32C982.977 438.852 982.846 439.3 982.632 439.664C982.426 440.028 982.137 440.308 981.764 440.504C981.4 440.691 980.952 440.784 980.42 440.784ZM986.214 440.588V432.986H987.754V436.206H987.712C987.712 435.114 987.945 434.288 988.412 433.728C988.879 433.168 989.565 432.888 990.47 432.888H990.75V434.582H990.218C989.565 434.582 989.056 434.759 988.692 435.114C988.337 435.459 988.16 435.963 988.16 436.626V440.588H986.214ZM994.867 440.84C994.335 440.84 993.845 440.742 993.397 440.546C992.949 440.35 992.562 440.075 992.235 439.72C991.909 439.365 991.657 438.955 991.479 438.488C991.302 438.012 991.213 437.499 991.213 436.948V436.654C991.213 436.113 991.297 435.604 991.465 435.128C991.643 434.652 991.885 434.237 992.193 433.882C992.511 433.527 992.889 433.252 993.327 433.056C993.775 432.851 994.27 432.748 994.811 432.748C995.409 432.748 995.931 432.879 996.379 433.14C996.837 433.392 997.201 433.775 997.471 434.288C997.742 434.801 997.891 435.445 997.919 436.22L997.345 435.548V430.368H999.291V440.588H997.751V437.354H998.087C998.059 438.129 997.901 438.777 997.611 439.3C997.322 439.813 996.939 440.201 996.463 440.462C995.997 440.714 995.465 440.84 994.867 440.84ZM995.301 439.202C995.684 439.202 996.034 439.118 996.351 438.95C996.669 438.773 996.921 438.521 997.107 438.194C997.303 437.858 997.401 437.466 997.401 437.018V436.458C997.401 436.01 997.303 435.637 997.107 435.338C996.911 435.03 996.655 434.797 996.337 434.638C996.02 434.47 995.675 434.386 995.301 434.386C994.881 434.386 994.508 434.489 994.181 434.694C993.864 434.89 993.612 435.17 993.425 435.534C993.248 435.898 993.159 436.323 993.159 436.808C993.159 437.293 993.253 437.718 993.439 438.082C993.626 438.437 993.878 438.712 994.195 438.908C994.522 439.104 994.891 439.202 995.301 439.202ZM1003.98 440.826C1002.94 440.826 1002.12 440.607 1001.52 440.168C1000.93 439.72 1000.62 439.104 1000.6 438.32H1002.35C1002.37 438.581 1002.52 438.819 1002.78 439.034C1003.04 439.249 1003.45 439.356 1004.01 439.356C1004.48 439.356 1004.85 439.272 1005.12 439.104C1005.4 438.936 1005.54 438.707 1005.54 438.418C1005.54 438.166 1005.43 437.965 1005.22 437.816C1005.01 437.667 1004.66 437.569 1004.15 437.522L1003.48 437.452C1002.63 437.359 1001.98 437.116 1001.52 436.724C1001.06 436.332 1000.83 435.809 1000.83 435.156C1000.83 434.633 1000.96 434.195 1001.23 433.84C1001.49 433.485 1001.85 433.219 1002.3 433.042C1002.77 432.855 1003.3 432.762 1003.9 432.762C1004.83 432.762 1005.59 432.967 1006.17 433.378C1006.75 433.789 1007.05 434.391 1007.08 435.184H1005.33C1005.31 434.923 1005.18 434.699 1004.94 434.512C1004.69 434.325 1004.34 434.232 1003.89 434.232C1003.48 434.232 1003.16 434.311 1002.93 434.47C1002.71 434.629 1002.6 434.834 1002.6 435.086C1002.6 435.329 1002.69 435.515 1002.86 435.646C1003.05 435.777 1003.35 435.865 1003.76 435.912L1004.43 435.982C1005.33 436.075 1006.03 436.323 1006.53 436.724C1007.05 437.125 1007.3 437.667 1007.3 438.348C1007.3 438.852 1007.16 439.291 1006.88 439.664C1006.61 440.028 1006.23 440.313 1005.73 440.518C1005.24 440.723 1004.66 440.826 1003.98 440.826Z" fill="white"/>
<path d="M312.294 317.588V307.788C312.294 305.641 312.62 303.775 313.274 302.188C313.974 300.601 315.094 299.201 316.634 297.988C318.22 296.728 320.297 295.538 322.864 294.418L331.544 290.568C333.69 289.588 335.324 288.398 336.444 286.998C337.61 285.551 338.194 283.708 338.194 281.468C338.194 278.995 337.447 277.035 335.954 275.588C334.507 274.095 332.43 273.348 329.724 273.348C327.017 273.348 324.917 274.095 323.424 275.588C321.977 277.081 321.254 279.158 321.254 281.818H311.664C311.664 278.645 312.34 275.798 313.694 273.278C315.047 270.711 317.054 268.705 319.714 267.258C322.374 265.765 325.71 265.018 329.724 265.018C333.737 265.018 337.074 265.741 339.734 267.188C342.394 268.635 344.4 270.571 345.754 272.998C347.107 275.378 347.784 278.038 347.784 280.978V281.888C347.784 285.715 346.71 288.911 344.564 291.478C342.417 293.998 339.267 296.191 335.114 298.058L326.434 301.908C324.8 302.608 323.657 303.355 323.004 304.148C322.35 304.895 322.024 305.921 322.024 307.228V311.708L319.644 309.118H347.994V317.588H312.294ZM375.15 319.058C371.37 319.058 368.15 318.428 365.49 317.168C362.877 315.861 360.754 314.088 359.12 311.848C357.487 309.608 356.297 307.018 355.55 304.078C354.804 301.091 354.43 297.941 354.43 294.628V291.548C354.43 283.195 356.53 276.871 360.73 272.578C364.977 268.238 371.184 266.068 379.35 266.068C381.124 266.068 382.78 266.115 384.32 266.208C385.86 266.301 387.4 266.441 388.94 266.628V274.958C387.4 274.771 385.814 274.631 384.18 274.538C382.594 274.445 380.867 274.398 379 274.398C375.08 274.398 372 275.075 369.76 276.428C367.52 277.781 365.91 279.765 364.93 282.378C363.997 284.991 363.53 288.235 363.53 292.108V296.658L361.29 299.878C361.337 296.285 362.037 293.321 363.39 290.988C364.79 288.608 366.704 286.835 369.13 285.668C371.557 284.455 374.334 283.848 377.46 283.848C381.1 283.848 384.204 284.571 386.77 286.018C389.337 287.465 391.297 289.471 392.65 292.038C394.05 294.605 394.75 297.591 394.75 300.998C394.75 304.545 393.957 307.695 392.37 310.448C390.784 313.155 388.52 315.278 385.58 316.818C382.687 318.311 379.21 319.058 375.15 319.058ZM374.94 310.728C377.134 310.728 379 310.331 380.54 309.538C382.08 308.698 383.247 307.555 384.04 306.108C384.834 304.661 385.23 303.005 385.23 301.138C385.23 299.225 384.834 297.545 384.04 296.098C383.294 294.651 382.174 293.531 380.68 292.738C379.187 291.945 377.39 291.548 375.29 291.548C373.284 291.548 371.44 291.921 369.76 292.668C368.127 293.368 366.82 294.441 365.84 295.888C364.907 297.288 364.44 299.038 364.44 301.138C364.44 302.958 364.814 304.591 365.56 306.038C366.354 307.485 367.52 308.628 369.06 309.468C370.647 310.308 372.607 310.728 374.94 310.728Z" fill="white"/>
<path d="M315.449 353.588V343.368H317.437V353.588H315.449ZM308.743 353.588V343.368H310.731V353.588H308.743ZM310.367 349.346V347.596H315.813V349.346H310.367ZM324.126 353.588V351.334H323.804V348.828C323.804 348.389 323.697 348.063 323.482 347.848C323.267 347.633 322.936 347.526 322.488 347.526C322.255 347.526 321.975 347.531 321.648 347.54C321.321 347.549 320.99 347.563 320.654 347.582C320.327 347.591 320.033 347.605 319.772 347.624V345.972C319.987 345.953 320.229 345.935 320.5 345.916C320.771 345.897 321.046 345.888 321.326 345.888C321.615 345.879 321.886 345.874 322.138 345.874C322.922 345.874 323.571 345.977 324.084 346.182C324.607 346.387 324.999 346.709 325.26 347.148C325.531 347.587 325.666 348.161 325.666 348.87V353.588H324.126ZM321.676 353.784C321.125 353.784 320.64 353.686 320.22 353.49C319.809 353.294 319.487 353.014 319.254 352.65C319.03 352.286 318.918 351.847 318.918 351.334C318.918 350.774 319.053 350.317 319.324 349.962C319.604 349.607 319.991 349.341 320.486 349.164C320.99 348.987 321.578 348.898 322.25 348.898H324.014V350.06H322.222C321.774 350.06 321.429 350.172 321.186 350.396C320.953 350.611 320.836 350.891 320.836 351.236C320.836 351.581 320.953 351.861 321.186 352.076C321.429 352.291 321.774 352.398 322.222 352.398C322.493 352.398 322.74 352.351 322.964 352.258C323.197 352.155 323.389 351.987 323.538 351.754C323.697 351.511 323.785 351.185 323.804 350.774L324.28 351.32C324.233 351.852 324.103 352.3 323.888 352.664C323.683 353.028 323.393 353.308 323.02 353.504C322.656 353.691 322.208 353.784 321.676 353.784ZM327.471 356.388V345.986H329.011V349.262L328.773 349.248C328.81 348.473 328.969 347.825 329.249 347.302C329.538 346.779 329.921 346.392 330.397 346.14C330.873 345.879 331.405 345.748 331.993 345.748C332.534 345.748 333.019 345.846 333.449 346.042C333.887 346.238 334.261 346.513 334.569 346.868C334.886 347.223 335.129 347.638 335.297 348.114C335.465 348.581 335.549 349.085 335.549 349.626V349.92C335.549 350.471 335.465 350.984 335.297 351.46C335.138 351.927 334.9 352.342 334.583 352.706C334.275 353.061 333.901 353.341 333.463 353.546C333.024 353.742 332.534 353.84 331.993 353.84C331.423 353.84 330.901 353.723 330.425 353.49C329.958 353.247 329.58 352.879 329.291 352.384C329.001 351.88 328.838 351.231 328.801 350.438L329.417 351.376V356.388H327.471ZM331.503 352.202C331.923 352.202 332.287 352.099 332.595 351.894C332.912 351.689 333.159 351.404 333.337 351.04C333.514 350.667 333.603 350.247 333.603 349.78C333.603 349.295 333.514 348.875 333.337 348.52C333.159 348.165 332.912 347.89 332.595 347.694C332.287 347.489 331.923 347.386 331.503 347.386C331.12 347.386 330.765 347.47 330.439 347.638C330.121 347.806 329.86 348.053 329.655 348.38C329.459 348.707 329.361 349.099 329.361 349.556V350.116C329.361 350.555 329.463 350.928 329.669 351.236C329.874 351.544 330.14 351.782 330.467 351.95C330.793 352.118 331.139 352.202 331.503 352.202ZM336.98 356.388V345.986H338.52V349.262L338.282 349.248C338.319 348.473 338.478 347.825 338.758 347.302C339.047 346.779 339.43 346.392 339.906 346.14C340.382 345.879 340.914 345.748 341.502 345.748C342.043 345.748 342.528 345.846 342.958 346.042C343.396 346.238 343.77 346.513 344.078 346.868C344.395 347.223 344.638 347.638 344.806 348.114C344.974 348.581 345.058 349.085 345.058 349.626V349.92C345.058 350.471 344.974 350.984 344.806 351.46C344.647 351.927 344.409 352.342 344.092 352.706C343.784 353.061 343.41 353.341 342.972 353.546C342.533 353.742 342.043 353.84 341.502 353.84C340.932 353.84 340.41 353.723 339.934 353.49C339.467 353.247 339.089 352.879 338.8 352.384C338.51 351.88 338.347 351.231 338.31 350.438L338.926 351.376V356.388H336.98ZM341.012 352.202C341.432 352.202 341.796 352.099 342.104 351.894C342.421 351.689 342.668 351.404 342.846 351.04C343.023 350.667 343.112 350.247 343.112 349.78C343.112 349.295 343.023 348.875 342.846 348.52C342.668 348.165 342.421 347.89 342.104 347.694C341.796 347.489 341.432 347.386 341.012 347.386C340.629 347.386 340.274 347.47 339.948 347.638C339.63 347.806 339.369 348.053 339.164 348.38C338.968 348.707 338.87 349.099 338.87 349.556V350.116C338.87 350.555 338.972 350.928 339.178 351.236C339.383 351.544 339.649 351.782 339.976 351.95C340.302 352.118 340.648 352.202 341.012 352.202ZM346.101 356.584V354.918H347.529C347.799 354.918 348.023 354.881 348.201 354.806C348.387 354.741 348.541 354.629 348.663 354.47C348.784 354.321 348.877 354.111 348.943 353.84L350.987 345.986H352.849L350.595 354.26C350.445 354.829 350.235 355.282 349.965 355.618C349.694 355.963 349.344 356.211 348.915 356.36C348.495 356.509 347.972 356.584 347.347 356.584H346.101ZM348.467 353.42V351.88H350.091V353.42H348.467ZM347.809 353.42L345.345 345.986H347.305L349.643 353.42H347.809ZM361.407 353.854C360.483 353.854 359.69 353.691 359.027 353.364C358.365 353.037 357.823 352.613 357.403 352.09C356.993 351.567 356.689 350.998 356.493 350.382C356.297 349.766 356.199 349.173 356.199 348.604V348.296C356.199 347.661 356.297 347.036 356.493 346.42C356.699 345.804 357.011 345.244 357.431 344.74C357.851 344.236 358.383 343.835 359.027 343.536C359.681 343.228 360.451 343.074 361.337 343.074C362.261 343.074 363.064 343.242 363.745 343.578C364.436 343.905 364.987 344.371 365.397 344.978C365.808 345.575 366.055 346.275 366.139 347.078H364.137C364.063 346.611 363.895 346.219 363.633 345.902C363.381 345.575 363.059 345.333 362.667 345.174C362.275 345.006 361.832 344.922 361.337 344.922C360.833 344.922 360.385 345.011 359.993 345.188C359.601 345.356 359.275 345.599 359.013 345.916C358.752 346.233 358.551 346.607 358.411 347.036C358.281 347.465 358.215 347.941 358.215 348.464C358.215 348.968 358.281 349.435 358.411 349.864C358.551 350.293 358.757 350.671 359.027 350.998C359.298 351.315 359.629 351.563 360.021 351.74C360.423 351.917 360.885 352.006 361.407 352.006C362.173 352.006 362.817 351.819 363.339 351.446C363.871 351.063 364.193 350.531 364.305 349.85H366.307C366.214 350.578 365.967 351.245 365.565 351.852C365.164 352.459 364.613 352.944 363.913 353.308C363.213 353.672 362.378 353.854 361.407 353.854ZM367.649 353.588V343.368H369.595V353.588H367.649ZM366.697 344.824V343.368H369.595V344.824H366.697ZM371.901 353.588V345.986H373.847V353.588H371.901ZM370.837 347.442V345.986H373.847V347.442H370.837ZM372.615 345.076C372.232 345.076 371.947 344.978 371.761 344.782C371.583 344.577 371.495 344.325 371.495 344.026C371.495 343.709 371.583 343.452 371.761 343.256C371.947 343.06 372.232 342.962 372.615 342.962C372.997 342.962 373.277 343.06 373.455 343.256C373.632 343.452 373.721 343.709 373.721 344.026C373.721 344.325 373.632 344.577 373.455 344.782C373.277 344.978 372.997 345.076 372.615 345.076ZM379.211 353.854C378.558 353.854 377.984 353.742 377.489 353.518C377.004 353.294 376.598 352.995 376.271 352.622C375.954 352.239 375.711 351.815 375.543 351.348C375.385 350.881 375.305 350.405 375.305 349.92V349.654C375.305 349.15 375.385 348.665 375.543 348.198C375.711 347.722 375.954 347.302 376.271 346.938C376.598 346.565 376.999 346.271 377.475 346.056C377.951 345.832 378.502 345.72 379.127 345.72C379.949 345.72 380.635 345.902 381.185 346.266C381.745 346.621 382.165 347.092 382.445 347.68C382.725 348.259 382.865 348.884 382.865 349.556V350.256H376.131V349.066H381.647L381.045 349.654C381.045 349.169 380.975 348.753 380.835 348.408C380.695 348.063 380.481 347.797 380.191 347.61C379.911 347.423 379.557 347.33 379.127 347.33C378.698 347.33 378.334 347.428 378.035 347.624C377.737 347.82 377.508 348.105 377.349 348.478C377.2 348.842 377.125 349.281 377.125 349.794C377.125 350.27 377.2 350.695 377.349 351.068C377.499 351.432 377.727 351.721 378.035 351.936C378.343 352.141 378.735 352.244 379.211 352.244C379.687 352.244 380.075 352.151 380.373 351.964C380.672 351.768 380.863 351.53 380.947 351.25H382.739C382.627 351.773 382.413 352.23 382.095 352.622C381.778 353.014 381.372 353.317 380.877 353.532C380.392 353.747 379.837 353.854 379.211 353.854ZM384.211 353.588V345.986H385.751V349.248H385.611C385.611 348.473 385.714 347.829 385.919 347.316C386.124 346.793 386.428 346.401 386.829 346.14C387.24 345.879 387.748 345.748 388.355 345.748H388.439C389.344 345.748 390.03 346.042 390.497 346.63C390.964 347.209 391.197 348.077 391.197 349.234V353.588H389.251V349.066C389.251 348.599 389.116 348.221 388.845 347.932C388.584 347.643 388.22 347.498 387.753 347.498C387.277 347.498 386.89 347.647 386.591 347.946C386.302 348.235 386.157 348.627 386.157 349.122V353.588H384.211ZM396.313 353.686C395.613 353.686 395.034 353.597 394.577 353.42C394.129 353.233 393.793 352.925 393.569 352.496C393.345 352.057 393.233 351.469 393.233 350.732L393.247 343.844H395.067L395.053 350.858C395.053 351.231 395.151 351.521 395.347 351.726C395.552 351.922 395.842 352.02 396.215 352.02H397.405V353.686H396.313ZM392.029 347.414V345.986H397.405V347.414H392.029Z" fill="white"/>
<path d="M784.653 296.388C779.613 296.388 775.173 295.578 771.333 293.958C767.493 292.338 764.493 290.028 762.333 287.028C760.173 284.028 759.093 280.458 759.093 276.318C759.093 273.558 759.573 271.128 760.533 269.028C761.493 266.868 762.813 265.038 764.493 263.538C766.173 261.978 768.153 260.808 770.433 260.028V258.948C768.693 258.168 767.103 257.148 765.663 255.888C764.283 254.628 763.173 253.098 762.333 251.298C761.553 249.498 761.163 247.428 761.163 245.088C761.163 241.128 762.183 237.828 764.223 235.188C766.323 232.488 769.143 230.478 772.683 229.158C776.283 227.778 780.273 227.088 784.653 227.088C789.093 227.088 793.083 227.778 796.623 229.158C800.223 230.478 803.043 232.488 805.083 235.188C807.183 237.828 808.233 241.128 808.233 245.088C808.233 247.428 807.813 249.498 806.973 251.298C806.193 253.098 805.113 254.628 803.733 255.888C802.353 257.148 800.763 258.168 798.963 258.948V260.028C801.243 260.808 803.223 261.978 804.903 263.538C806.643 265.098 807.963 266.958 808.863 269.118C809.823 271.218 810.303 273.618 810.303 276.318C810.303 280.458 809.223 284.028 807.063 287.028C804.963 290.028 801.993 292.338 798.153 293.958C794.313 295.578 789.813 296.388 784.653 296.388ZM784.653 285.858C787.413 285.858 789.783 285.438 791.763 284.598C793.743 283.758 795.273 282.528 796.353 280.908C797.433 279.288 797.973 277.338 797.973 275.058C797.973 272.778 797.433 270.858 796.353 269.298C795.333 267.678 793.803 266.448 791.763 265.608C789.783 264.768 787.413 264.348 784.653 264.348C781.953 264.348 779.613 264.768 777.633 265.608C775.653 266.448 774.123 267.678 773.043 269.298C771.963 270.858 771.423 272.778 771.423 275.058C771.423 277.338 771.963 279.288 773.043 280.908C774.123 282.528 775.653 283.758 777.633 284.598C779.613 285.438 781.953 285.858 784.653 285.858ZM784.653 254.808C788.133 254.808 790.863 254.088 792.843 252.648C794.883 251.148 795.903 248.988 795.903 246.168C795.903 243.228 794.883 241.068 792.843 239.688C790.803 238.308 788.073 237.618 784.653 237.618C781.233 237.618 778.503 238.338 776.463 239.778C774.483 241.158 773.493 243.288 773.493 246.168C773.493 248.988 774.513 251.148 776.553 252.648C778.593 254.088 781.293 254.808 784.653 254.808Z" fill="white"/>
<path d="M730.907 332.682L727.827 326.368H729.871L732.223 331.31L731.775 331.17H733.105L732.629 331.31L734.771 326.368H736.703L733.861 332.682H730.907ZM731.411 336.588V332.374H733.357V336.588H731.411ZM740.31 336.854C739.656 336.854 739.082 336.742 738.588 336.518C738.102 336.294 737.696 335.995 737.37 335.622C737.052 335.239 736.81 334.815 736.642 334.348C736.483 333.881 736.404 333.405 736.404 332.92V332.654C736.404 332.15 736.483 331.665 736.642 331.198C736.81 330.722 737.052 330.302 737.37 329.938C737.696 329.565 738.098 329.271 738.574 329.056C739.05 328.832 739.6 328.72 740.226 328.72C741.047 328.72 741.733 328.902 742.284 329.266C742.844 329.621 743.264 330.092 743.544 330.68C743.824 331.259 743.964 331.884 743.964 332.556V333.256H737.23V332.066H742.746L742.144 332.654C742.144 332.169 742.074 331.753 741.934 331.408C741.794 331.063 741.579 330.797 741.29 330.61C741.01 330.423 740.655 330.33 740.226 330.33C739.796 330.33 739.432 330.428 739.134 330.624C738.835 330.82 738.606 331.105 738.448 331.478C738.298 331.842 738.224 332.281 738.224 332.794C738.224 333.27 738.298 333.695 738.448 334.068C738.597 334.432 738.826 334.721 739.134 334.936C739.442 335.141 739.834 335.244 740.31 335.244C740.786 335.244 741.173 335.151 741.472 334.964C741.77 334.768 741.962 334.53 742.046 334.25H743.838C743.726 334.773 743.511 335.23 743.194 335.622C742.876 336.014 742.47 336.317 741.976 336.532C741.49 336.747 740.935 336.854 740.31 336.854ZM749.915 336.588V334.334H749.593V331.828C749.593 331.389 749.486 331.063 749.271 330.848C749.057 330.633 748.725 330.526 748.277 330.526C748.044 330.526 747.764 330.531 747.437 330.54C747.111 330.549 746.779 330.563 746.443 330.582C746.117 330.591 745.823 330.605 745.561 330.624V328.972C745.776 328.953 746.019 328.935 746.289 328.916C746.56 328.897 746.835 328.888 747.115 328.888C747.405 328.879 747.675 328.874 747.927 328.874C748.711 328.874 749.36 328.977 749.873 329.182C750.396 329.387 750.788 329.709 751.049 330.148C751.32 330.587 751.455 331.161 751.455 331.87V336.588H749.915ZM747.465 336.784C746.915 336.784 746.429 336.686 746.009 336.49C745.599 336.294 745.277 336.014 745.043 335.65C744.819 335.286 744.707 334.847 744.707 334.334C744.707 333.774 744.843 333.317 745.113 332.962C745.393 332.607 745.781 332.341 746.275 332.164C746.779 331.987 747.367 331.898 748.039 331.898H749.803V333.06H748.011C747.563 333.06 747.218 333.172 746.975 333.396C746.742 333.611 746.625 333.891 746.625 334.236C746.625 334.581 746.742 334.861 746.975 335.076C747.218 335.291 747.563 335.398 748.011 335.398C748.282 335.398 748.529 335.351 748.753 335.258C748.987 335.155 749.178 334.987 749.327 334.754C749.486 334.511 749.575 334.185 749.593 333.774L750.069 334.32C750.023 334.852 749.892 335.3 749.677 335.664C749.472 336.028 749.183 336.308 748.809 336.504C748.445 336.691 747.997 336.784 747.465 336.784ZM753.26 336.588V328.986H754.8V332.206H754.758C754.758 331.114 754.991 330.288 755.458 329.728C755.925 329.168 756.611 328.888 757.516 328.888H757.796V330.582H757.264C756.611 330.582 756.102 330.759 755.738 331.114C755.383 331.459 755.206 331.963 755.206 332.626V336.588H753.26ZM761.576 336.826C760.53 336.826 759.709 336.607 759.112 336.168C758.524 335.72 758.216 335.104 758.188 334.32H759.938C759.966 334.581 760.11 334.819 760.372 335.034C760.633 335.249 761.044 335.356 761.604 335.356C762.07 335.356 762.439 335.272 762.71 335.104C762.99 334.936 763.13 334.707 763.13 334.418C763.13 334.166 763.022 333.965 762.808 333.816C762.602 333.667 762.248 333.569 761.744 333.522L761.072 333.452C760.222 333.359 759.569 333.116 759.112 332.724C758.654 332.332 758.426 331.809 758.426 331.156C758.426 330.633 758.556 330.195 758.818 329.84C759.079 329.485 759.438 329.219 759.896 329.042C760.362 328.855 760.894 328.762 761.492 328.762C762.425 328.762 763.181 328.967 763.76 329.378C764.338 329.789 764.642 330.391 764.67 331.184H762.92C762.901 330.923 762.77 330.699 762.528 330.512C762.285 330.325 761.935 330.232 761.478 330.232C761.067 330.232 760.75 330.311 760.526 330.47C760.302 330.629 760.19 330.834 760.19 331.086C760.19 331.329 760.278 331.515 760.456 331.646C760.642 331.777 760.941 331.865 761.352 331.912L762.024 331.982C762.92 332.075 763.62 332.323 764.124 332.724C764.637 333.125 764.894 333.667 764.894 334.348C764.894 334.852 764.754 335.291 764.474 335.664C764.203 336.028 763.82 336.313 763.326 336.518C762.831 336.723 762.248 336.826 761.576 336.826ZM769.327 336.588V328.986H771.273V336.588H769.327ZM768.263 330.442V328.986H771.273V330.442H768.263ZM770.041 328.076C769.658 328.076 769.374 327.978 769.187 327.782C769.01 327.577 768.921 327.325 768.921 327.026C768.921 326.709 769.01 326.452 769.187 326.256C769.374 326.06 769.658 325.962 770.041 325.962C770.424 325.962 770.704 326.06 770.881 326.256C771.058 326.452 771.147 326.709 771.147 327.026C771.147 327.325 771.058 327.577 770.881 327.782C770.704 327.978 770.424 328.076 770.041 328.076ZM773.236 336.588V328.986H774.776V332.248H774.636C774.636 331.473 774.738 330.829 774.944 330.316C775.149 329.793 775.452 329.401 775.854 329.14C776.264 328.879 776.773 328.748 777.38 328.748H777.464C778.369 328.748 779.055 329.042 779.522 329.63C779.988 330.209 780.222 331.077 780.222 332.234V336.588H778.276V332.066C778.276 331.599 778.14 331.221 777.87 330.932C777.608 330.643 777.244 330.498 776.778 330.498C776.302 330.498 775.914 330.647 775.616 330.946C775.326 331.235 775.182 331.627 775.182 332.122V336.588H773.236ZM784.957 336.588V326.368H786.945V336.588H784.957ZM789.062 336.588V328.986H790.602V332.248H790.462C790.462 331.473 790.564 330.829 790.77 330.316C790.975 329.793 791.278 329.401 791.68 329.14C792.09 328.879 792.599 328.748 793.206 328.748H793.29C794.195 328.748 794.881 329.042 795.348 329.63C795.814 330.209 796.048 331.077 796.048 332.234V336.588H794.102V332.066C794.102 331.599 793.966 331.221 793.696 330.932C793.434 330.643 793.07 330.498 792.604 330.498C792.128 330.498 791.74 330.647 791.442 330.946C791.152 331.235 791.008 331.627 791.008 332.122V336.588H789.062ZM801.01 336.84C800.478 336.84 799.988 336.742 799.54 336.546C799.092 336.35 798.704 336.075 798.378 335.72C798.051 335.365 797.799 334.955 797.622 334.488C797.444 334.012 797.356 333.499 797.356 332.948V332.654C797.356 332.113 797.44 331.604 797.608 331.128C797.785 330.652 798.028 330.237 798.336 329.882C798.653 329.527 799.031 329.252 799.47 329.056C799.918 328.851 800.412 328.748 800.954 328.748C801.551 328.748 802.074 328.879 802.522 329.14C802.979 329.392 803.343 329.775 803.614 330.288C803.884 330.801 804.034 331.445 804.062 332.22L803.488 331.548V326.368H805.434V336.588H803.894V333.354H804.23C804.202 334.129 804.043 334.777 803.754 335.3C803.464 335.813 803.082 336.201 802.606 336.462C802.139 336.714 801.607 336.84 801.01 336.84ZM801.444 335.202C801.826 335.202 802.176 335.118 802.494 334.95C802.811 334.773 803.063 334.521 803.25 334.194C803.446 333.858 803.544 333.466 803.544 333.018V332.458C803.544 332.01 803.446 331.637 803.25 331.338C803.054 331.03 802.797 330.797 802.48 330.638C802.162 330.47 801.817 330.386 801.444 330.386C801.024 330.386 800.65 330.489 800.324 330.694C800.006 330.89 799.754 331.17 799.568 331.534C799.39 331.898 799.302 332.323 799.302 332.808C799.302 333.293 799.395 333.718 799.582 334.082C799.768 334.437 800.02 334.712 800.338 334.908C800.664 335.104 801.033 335.202 801.444 335.202ZM809.959 336.826C809.081 336.826 808.4 336.537 807.915 335.958C807.439 335.379 807.201 334.521 807.201 333.382V328.972H809.147V333.55C809.147 334.017 809.277 334.39 809.539 334.67C809.8 334.941 810.155 335.076 810.603 335.076C811.051 335.076 811.415 334.931 811.695 334.642C811.984 334.353 812.129 333.961 812.129 333.466V328.972H814.075V336.588H812.535V333.354H812.689C812.689 334.119 812.591 334.759 812.395 335.272C812.199 335.785 811.905 336.173 811.513 336.434C811.121 336.695 810.631 336.826 810.043 336.826H809.959ZM818.788 336.826C817.743 336.826 816.922 336.607 816.324 336.168C815.736 335.72 815.428 335.104 815.4 334.32H817.15C817.178 334.581 817.323 334.819 817.584 335.034C817.846 335.249 818.256 335.356 818.816 335.356C819.283 335.356 819.652 335.272 819.922 335.104C820.202 334.936 820.342 334.707 820.342 334.418C820.342 334.166 820.235 333.965 820.02 333.816C819.815 333.667 819.46 333.569 818.956 333.522L818.284 333.452C817.435 333.359 816.782 333.116 816.324 332.724C815.867 332.332 815.638 331.809 815.638 331.156C815.638 330.633 815.769 330.195 816.03 329.84C816.292 329.485 816.651 329.219 817.108 329.042C817.575 328.855 818.107 328.762 818.704 328.762C819.638 328.762 820.394 328.967 820.972 329.378C821.551 329.789 821.854 330.391 821.882 331.184H820.132C820.114 330.923 819.983 330.699 819.74 330.512C819.498 330.325 819.148 330.232 818.69 330.232C818.28 330.232 817.962 330.311 817.738 330.47C817.514 330.629 817.402 330.834 817.402 331.086C817.402 331.329 817.491 331.515 817.668 331.646C817.855 331.777 818.154 331.865 818.564 331.912L819.236 331.982C820.132 332.075 820.832 332.323 821.336 332.724C821.85 333.125 822.106 333.667 822.106 334.348C822.106 334.852 821.966 335.291 821.686 335.664C821.416 336.028 821.033 336.313 820.538 336.518C820.044 336.723 819.46 336.826 818.788 336.826ZM826.738 336.686C826.038 336.686 825.459 336.597 825.002 336.42C824.554 336.233 824.218 335.925 823.994 335.496C823.77 335.057 823.658 334.469 823.658 333.732L823.672 326.844H825.492L825.478 333.858C825.478 334.231 825.576 334.521 825.772 334.726C825.977 334.922 826.266 335.02 826.64 335.02H827.83V336.686H826.738ZM822.454 330.414V328.986H827.83V330.414H822.454ZM829.183 336.588V328.986H830.723V332.206H830.681C830.681 331.114 830.914 330.288 831.381 329.728C831.848 329.168 832.534 328.888 833.439 328.888H833.719V330.582H833.187C832.534 330.582 832.025 330.759 831.661 331.114C831.306 331.459 831.129 331.963 831.129 332.626V336.588H829.183ZM834.749 339.584V337.918H836.177C836.448 337.918 836.672 337.881 836.849 337.806C837.036 337.741 837.19 337.629 837.311 337.47C837.433 337.321 837.526 337.111 837.591 336.84L839.635 328.986H841.497L839.243 337.26C839.094 337.829 838.884 338.282 838.613 338.618C838.343 338.963 837.993 339.211 837.563 339.36C837.143 339.509 836.621 339.584 835.995 339.584H834.749ZM837.115 336.42V334.88H838.739V336.42H837.115ZM836.457 336.42L833.993 328.986H835.953L838.291 336.42H836.457Z" fill="white"/>
<path d="M552.947 438.588V400.068L555.587 402.108H544.007V394.788H561.407V438.588H552.947ZM585.815 439.788C582.455 439.788 579.495 439.248 576.935 438.168C574.375 437.088 572.375 435.548 570.935 433.548C569.495 431.548 568.775 429.168 568.775 426.408C568.775 424.568 569.095 422.948 569.735 421.548C570.375 420.108 571.255 418.888 572.375 417.888C573.495 416.848 574.815 416.068 576.335 415.548V414.828C575.175 414.308 574.115 413.628 573.155 412.788C572.235 411.948 571.495 410.928 570.935 409.728C570.415 408.528 570.155 407.148 570.155 405.588C570.155 402.948 570.835 400.748 572.195 398.988C573.595 397.188 575.475 395.848 577.835 394.968C580.235 394.048 582.895 393.588 585.815 393.588C588.775 393.588 591.435 394.048 593.795 394.968C596.195 395.848 598.075 397.188 599.435 398.988C600.835 400.748 601.535 402.948 601.535 405.588C601.535 407.148 601.255 408.528 600.695 409.728C600.175 410.928 599.455 411.948 598.535 412.788C597.615 413.628 596.555 414.308 595.355 414.828V415.548C596.875 416.068 598.195 416.848 599.315 417.888C600.475 418.928 601.355 420.168 601.955 421.608C602.595 423.008 602.915 424.608 602.915 426.408C602.915 429.168 602.195 431.548 600.755 433.548C599.355 435.548 597.375 437.088 594.815 438.168C592.255 439.248 589.255 439.788 585.815 439.788ZM585.815 432.768C587.655 432.768 589.235 432.488 590.555 431.928C591.875 431.368 592.895 430.548 593.615 429.468C594.335 428.388 594.695 427.088 594.695 425.568C594.695 424.048 594.335 422.768 593.615 421.728C592.935 420.648 591.915 419.828 590.555 419.268C589.235 418.708 587.655 418.428 585.815 418.428C584.015 418.428 582.455 418.708 581.135 419.268C579.815 419.828 578.795 420.648 578.075 421.728C577.355 422.768 576.995 424.048 576.995 425.568C576.995 427.088 577.355 428.388 578.075 429.468C578.795 430.548 579.815 431.368 581.135 431.928C582.455 432.488 584.015 432.768 585.815 432.768ZM585.815 412.068C588.135 412.068 589.955 411.588 591.275 410.628C592.635 409.628 593.315 408.188 593.315 406.308C593.315 404.348 592.635 402.908 591.275 401.988C589.915 401.068 588.095 400.608 585.815 400.608C583.535 400.608 581.715 401.088 580.355 402.048C579.035 402.968 578.375 404.388 578.375 406.308C578.375 408.188 579.055 409.628 580.415 410.628C581.775 411.588 583.575 412.068 585.815 412.068Z" fill="white"/>
<path d="M538.812 471.588L542.298 461.368H545.546L549.13 471.588H547.086L544.048 462.726L544.762 463.034H543.012L543.74 462.726L540.8 471.588H538.812ZM541.248 468.872L541.878 467.192H546.022L546.638 468.872H541.248ZM550.214 474.388V463.986H551.754V467.262L551.516 467.248C551.553 466.473 551.712 465.825 551.992 465.302C552.281 464.779 552.664 464.392 553.14 464.14C553.616 463.879 554.148 463.748 554.736 463.748C555.277 463.748 555.763 463.846 556.192 464.042C556.631 464.238 557.004 464.513 557.312 464.868C557.629 465.223 557.872 465.638 558.04 466.114C558.208 466.581 558.292 467.085 558.292 467.626V467.92C558.292 468.471 558.208 468.984 558.04 469.46C557.881 469.927 557.643 470.342 557.326 470.706C557.018 471.061 556.645 471.341 556.206 471.546C555.767 471.742 555.277 471.84 554.736 471.84C554.167 471.84 553.644 471.723 553.168 471.49C552.701 471.247 552.323 470.879 552.034 470.384C551.745 469.88 551.581 469.231 551.544 468.438L552.16 469.376V474.388H550.214ZM554.246 470.202C554.666 470.202 555.03 470.099 555.338 469.894C555.655 469.689 555.903 469.404 556.08 469.04C556.257 468.667 556.346 468.247 556.346 467.78C556.346 467.295 556.257 466.875 556.08 466.52C555.903 466.165 555.655 465.89 555.338 465.694C555.03 465.489 554.666 465.386 554.246 465.386C553.863 465.386 553.509 465.47 553.182 465.638C552.865 465.806 552.603 466.053 552.398 466.38C552.202 466.707 552.104 467.099 552.104 467.556V468.116C552.104 468.555 552.207 468.928 552.412 469.236C552.617 469.544 552.883 469.782 553.21 469.95C553.537 470.118 553.882 470.202 554.246 470.202ZM559.723 474.388V463.986H561.263V467.262L561.025 467.248C561.062 466.473 561.221 465.825 561.501 465.302C561.79 464.779 562.173 464.392 562.649 464.14C563.125 463.879 563.657 463.748 564.245 463.748C564.786 463.748 565.272 463.846 565.701 464.042C566.14 464.238 566.513 464.513 566.821 464.868C567.138 465.223 567.381 465.638 567.549 466.114C567.717 466.581 567.801 467.085 567.801 467.626V467.92C567.801 468.471 567.717 468.984 567.549 469.46C567.39 469.927 567.152 470.342 566.835 470.706C566.527 471.061 566.154 471.341 565.715 471.546C565.276 471.742 564.786 471.84 564.245 471.84C563.676 471.84 563.153 471.723 562.677 471.49C562.21 471.247 561.832 470.879 561.543 470.384C561.254 469.88 561.09 469.231 561.053 468.438L561.669 469.376V474.388H559.723ZM563.755 470.202C564.175 470.202 564.539 470.099 564.847 469.894C565.164 469.689 565.412 469.404 565.589 469.04C565.766 468.667 565.855 468.247 565.855 467.78C565.855 467.295 565.766 466.875 565.589 466.52C565.412 466.165 565.164 465.89 564.847 465.694C564.539 465.489 564.175 465.386 563.755 465.386C563.372 465.386 563.018 465.47 562.691 465.638C562.374 465.806 562.112 466.053 561.907 466.38C561.711 466.707 561.613 467.099 561.613 467.556V468.116C561.613 468.555 561.716 468.928 561.921 469.236C562.126 469.544 562.392 469.782 562.719 469.95C563.046 470.118 563.391 470.202 563.755 470.202ZM575.614 471.854C574.708 471.854 573.943 471.709 573.318 471.42C572.702 471.131 572.23 470.734 571.904 470.23C571.577 469.717 571.414 469.138 571.414 468.494H573.36C573.36 468.765 573.434 469.031 573.584 469.292C573.733 469.544 573.971 469.749 574.298 469.908C574.634 470.067 575.072 470.146 575.614 470.146C576.099 470.146 576.505 470.076 576.832 469.936C577.158 469.796 577.401 469.614 577.56 469.39C577.718 469.157 577.798 468.895 577.798 468.606C577.798 468.242 577.644 467.953 577.336 467.738C577.028 467.514 576.552 467.374 575.908 467.318L575.012 467.248C574.032 467.164 573.248 466.861 572.66 466.338C572.081 465.806 571.792 465.106 571.792 464.238C571.792 463.585 571.946 463.025 572.254 462.558C572.562 462.082 572.991 461.718 573.542 461.466C574.102 461.205 574.755 461.074 575.502 461.074C576.276 461.074 576.944 461.209 577.504 461.48C578.064 461.751 578.498 462.133 578.806 462.628C579.114 463.113 579.268 463.687 579.268 464.35H577.322C577.322 464.07 577.252 463.813 577.112 463.58C576.981 463.337 576.78 463.146 576.51 463.006C576.248 462.857 575.912 462.782 575.502 462.782C575.11 462.782 574.783 462.847 574.522 462.978C574.26 463.109 574.064 463.286 573.934 463.51C573.803 463.734 573.738 463.977 573.738 464.238C573.738 464.555 573.854 464.835 574.088 465.078C574.321 465.311 574.69 465.447 575.194 465.484L576.09 465.568C576.818 465.624 577.457 465.778 578.008 466.03C578.558 466.282 578.983 466.623 579.282 467.052C579.59 467.481 579.744 467.999 579.744 468.606C579.744 469.25 579.576 469.819 579.24 470.314C578.904 470.799 578.423 471.177 577.798 471.448C577.182 471.719 576.454 471.854 575.614 471.854ZM584.431 471.686C583.731 471.686 583.152 471.597 582.695 471.42C582.247 471.233 581.911 470.925 581.687 470.496C581.463 470.057 581.351 469.469 581.351 468.732L581.365 461.844H583.185L583.171 468.858C583.171 469.231 583.269 469.521 583.465 469.726C583.67 469.922 583.96 470.02 584.333 470.02H585.523V471.686H584.431ZM580.147 465.414V463.986H585.523V465.414H580.147ZM590.489 471.854C589.817 471.854 589.225 471.747 588.711 471.532C588.198 471.317 587.764 471.028 587.409 470.664C587.055 470.291 586.784 469.871 586.597 469.404C586.42 468.937 586.331 468.452 586.331 467.948V467.654C586.331 467.131 586.425 466.637 586.611 466.17C586.807 465.694 587.083 465.274 587.437 464.91C587.801 464.537 588.24 464.247 588.753 464.042C589.267 463.827 589.845 463.72 590.489 463.72C591.133 463.72 591.712 463.827 592.225 464.042C592.739 464.247 593.173 464.537 593.527 464.91C593.891 465.274 594.167 465.694 594.353 466.17C594.54 466.637 594.633 467.131 594.633 467.654V467.948C594.633 468.452 594.54 468.937 594.353 469.404C594.176 469.871 593.91 470.291 593.555 470.664C593.201 471.028 592.767 471.317 592.253 471.532C591.74 471.747 591.152 471.854 590.489 471.854ZM590.489 470.188C590.965 470.188 591.367 470.085 591.693 469.88C592.02 469.665 592.267 469.381 592.435 469.026C592.603 468.662 592.687 468.251 592.687 467.794C592.687 467.327 592.599 466.917 592.421 466.562C592.253 466.198 592.001 465.913 591.665 465.708C591.339 465.493 590.947 465.386 590.489 465.386C590.032 465.386 589.635 465.493 589.299 465.708C588.973 465.913 588.721 466.198 588.543 466.562C588.366 466.917 588.277 467.327 588.277 467.794C588.277 468.251 588.361 468.662 588.529 469.026C588.707 469.381 588.959 469.665 589.285 469.88C589.612 470.085 590.013 470.188 590.489 470.188ZM596.057 471.588V463.986H597.597V467.206H597.555C597.555 466.114 597.789 465.288 598.255 464.728C598.722 464.168 599.408 463.888 600.313 463.888H600.593V465.582H600.061C599.408 465.582 598.899 465.759 598.535 466.114C598.181 466.459 598.003 466.963 598.003 467.626V471.588H596.057ZM604.963 471.854C604.309 471.854 603.735 471.742 603.241 471.518C602.755 471.294 602.349 470.995 602.023 470.622C601.705 470.239 601.463 469.815 601.295 469.348C601.136 468.881 601.057 468.405 601.057 467.92V467.654C601.057 467.15 601.136 466.665 601.295 466.198C601.463 465.722 601.705 465.302 602.023 464.938C602.349 464.565 602.751 464.271 603.227 464.056C603.703 463.832 604.253 463.72 604.879 463.72C605.7 463.72 606.386 463.902 606.937 464.266C607.497 464.621 607.917 465.092 608.197 465.68C608.477 466.259 608.617 466.884 608.617 467.556V468.256H601.883V467.066H607.399L606.797 467.654C606.797 467.169 606.727 466.753 606.587 466.408C606.447 466.063 606.232 465.797 605.943 465.61C605.663 465.423 605.308 465.33 604.879 465.33C604.449 465.33 604.085 465.428 603.787 465.624C603.488 465.82 603.259 466.105 603.101 466.478C602.951 466.842 602.877 467.281 602.877 467.794C602.877 468.27 602.951 468.695 603.101 469.068C603.25 469.432 603.479 469.721 603.787 469.936C604.095 470.141 604.487 470.244 604.963 470.244C605.439 470.244 605.826 470.151 606.125 469.964C606.423 469.768 606.615 469.53 606.699 469.25H608.491C608.379 469.773 608.164 470.23 607.847 470.622C607.529 471.014 607.123 471.317 606.629 471.532C606.143 471.747 605.588 471.854 604.963 471.854ZM545.104 489.588V479.368H547.092V489.588H545.104ZM546.812 485.332V483.652L550.9 483.638V485.318L546.812 485.332ZM546.812 481.048V479.368H551.096V481.048H546.812ZM555.729 489.854C555.075 489.854 554.501 489.742 554.007 489.518C553.521 489.294 553.115 488.995 552.789 488.622C552.471 488.239 552.229 487.815 552.061 487.348C551.902 486.881 551.823 486.405 551.823 485.92V485.654C551.823 485.15 551.902 484.665 552.061 484.198C552.229 483.722 552.471 483.302 552.789 482.938C553.115 482.565 553.517 482.271 553.993 482.056C554.469 481.832 555.019 481.72 555.645 481.72C556.466 481.72 557.152 481.902 557.703 482.266C558.263 482.621 558.683 483.092 558.963 483.68C559.243 484.259 559.383 484.884 559.383 485.556V486.256H552.649V485.066H558.165L557.563 485.654C557.563 485.169 557.493 484.753 557.353 484.408C557.213 484.063 556.998 483.797 556.709 483.61C556.429 483.423 556.074 483.33 555.645 483.33C555.215 483.33 554.851 483.428 554.553 483.624C554.254 483.82 554.025 484.105 553.867 484.478C553.717 484.842 553.643 485.281 553.643 485.794C553.643 486.27 553.717 486.695 553.867 487.068C554.016 487.432 554.245 487.721 554.553 487.936C554.861 488.141 555.253 488.244 555.729 488.244C556.205 488.244 556.592 488.151 556.891 487.964C557.189 487.768 557.381 487.53 557.465 487.25H559.257C559.145 487.773 558.93 488.23 558.613 488.622C558.295 489.014 557.889 489.317 557.395 489.532C556.909 489.747 556.354 489.854 555.729 489.854ZM565.334 489.588V487.334H565.012V484.828C565.012 484.389 564.905 484.063 564.69 483.848C564.475 483.633 564.144 483.526 563.696 483.526C563.463 483.526 563.183 483.531 562.856 483.54C562.529 483.549 562.198 483.563 561.862 483.582C561.535 483.591 561.241 483.605 560.98 483.624V481.972C561.195 481.953 561.437 481.935 561.708 481.916C561.979 481.897 562.254 481.888 562.534 481.888C562.823 481.879 563.094 481.874 563.346 481.874C564.13 481.874 564.779 481.977 565.292 482.182C565.815 482.387 566.207 482.709 566.468 483.148C566.739 483.587 566.874 484.161 566.874 484.87V489.588H565.334ZM562.884 489.784C562.333 489.784 561.848 489.686 561.428 489.49C561.017 489.294 560.695 489.014 560.462 488.65C560.238 488.286 560.126 487.847 560.126 487.334C560.126 486.774 560.261 486.317 560.532 485.962C560.812 485.607 561.199 485.341 561.694 485.164C562.198 484.987 562.786 484.898 563.458 484.898H565.222V486.06H563.43C562.982 486.06 562.637 486.172 562.394 486.396C562.161 486.611 562.044 486.891 562.044 487.236C562.044 487.581 562.161 487.861 562.394 488.076C562.637 488.291 562.982 488.398 563.43 488.398C563.701 488.398 563.948 488.351 564.172 488.258C564.405 488.155 564.597 487.987 564.746 487.754C564.905 487.511 564.993 487.185 565.012 486.774L565.488 487.32C565.441 487.852 565.311 488.3 565.096 488.664C564.891 489.028 564.601 489.308 564.228 489.504C563.864 489.691 563.416 489.784 562.884 489.784ZM571.983 489.686C571.283 489.686 570.704 489.597 570.247 489.42C569.799 489.233 569.463 488.925 569.239 488.496C569.015 488.057 568.903 487.469 568.903 486.732L568.917 479.844H570.737L570.723 486.858C570.723 487.231 570.821 487.521 571.017 487.726C571.222 487.922 571.511 488.02 571.885 488.02H573.075V489.686H571.983ZM567.699 483.414V481.986H573.075V483.414H567.699ZM577.018 489.826C576.141 489.826 575.459 489.537 574.974 488.958C574.498 488.379 574.26 487.521 574.26 486.382V481.972H576.206V486.55C576.206 487.017 576.337 487.39 576.598 487.67C576.859 487.941 577.214 488.076 577.662 488.076C578.11 488.076 578.474 487.931 578.754 487.642C579.043 487.353 579.188 486.961 579.188 486.466V481.972H581.134V489.588H579.594V486.354H579.748C579.748 487.119 579.65 487.759 579.454 488.272C579.258 488.785 578.964 489.173 578.572 489.434C578.18 489.695 577.69 489.826 577.102 489.826H577.018ZM583.089 489.588V481.986H584.629V485.206H584.587C584.587 484.114 584.821 483.288 585.287 482.728C585.754 482.168 586.44 481.888 587.345 481.888H587.625V483.582H587.093C586.44 483.582 585.931 483.759 585.567 484.114C585.213 484.459 585.035 484.963 585.035 485.626V489.588H583.089ZM591.995 489.854C591.341 489.854 590.767 489.742 590.273 489.518C589.787 489.294 589.381 488.995 589.055 488.622C588.737 488.239 588.495 487.815 588.327 487.348C588.168 486.881 588.089 486.405 588.089 485.92V485.654C588.089 485.15 588.168 484.665 588.327 484.198C588.495 483.722 588.737 483.302 589.055 482.938C589.381 482.565 589.783 482.271 590.259 482.056C590.735 481.832 591.285 481.72 591.911 481.72C592.732 481.72 593.418 481.902 593.969 482.266C594.529 482.621 594.949 483.092 595.229 483.68C595.509 484.259 595.649 484.884 595.649 485.556V486.256H588.915V485.066H594.431L593.829 485.654C593.829 485.169 593.759 484.753 593.619 484.408C593.479 484.063 593.264 483.797 592.975 483.61C592.695 483.423 592.34 483.33 591.911 483.33C591.481 483.33 591.117 483.428 590.819 483.624C590.52 483.82 590.291 484.105 590.133 484.478C589.983 484.842 589.909 485.281 589.909 485.794C589.909 486.27 589.983 486.695 590.133 487.068C590.282 487.432 590.511 487.721 590.819 487.936C591.127 488.141 591.519 488.244 591.995 488.244C592.471 488.244 592.858 488.151 593.157 487.964C593.455 487.768 593.647 487.53 593.731 487.25H595.523C595.411 487.773 595.196 488.23 594.879 488.622C594.561 489.014 594.155 489.317 593.661 489.532C593.175 489.747 592.62 489.854 591.995 489.854ZM599.752 489.826C598.707 489.826 597.886 489.607 597.288 489.168C596.7 488.72 596.392 488.104 596.364 487.32H598.114C598.142 487.581 598.287 487.819 598.548 488.034C598.81 488.249 599.22 488.356 599.78 488.356C600.247 488.356 600.616 488.272 600.886 488.104C601.166 487.936 601.306 487.707 601.306 487.418C601.306 487.166 601.199 486.965 600.984 486.816C600.779 486.667 600.424 486.569 599.92 486.522L599.248 486.452C598.399 486.359 597.746 486.116 597.288 485.724C596.831 485.332 596.602 484.809 596.602 484.156C596.602 483.633 596.733 483.195 596.994 482.84C597.256 482.485 597.615 482.219 598.072 482.042C598.539 481.855 599.071 481.762 599.668 481.762C600.602 481.762 601.358 481.967 601.936 482.378C602.515 482.789 602.818 483.391 602.846 484.184H601.096C601.078 483.923 600.947 483.699 600.704 483.512C600.462 483.325 600.112 483.232 599.654 483.232C599.244 483.232 598.926 483.311 598.702 483.47C598.478 483.629 598.366 483.834 598.366 484.086C598.366 484.329 598.455 484.515 598.632 484.646C598.819 484.777 599.118 484.865 599.528 484.912L600.2 484.982C601.096 485.075 601.796 485.323 602.3 485.724C602.814 486.125 603.07 486.667 603.07 487.348C603.07 487.852 602.93 488.291 602.65 488.664C602.38 489.028 601.997 489.313 601.502 489.518C601.008 489.723 600.424 489.826 599.752 489.826Z" fill="white"/>
<defs>
<filter id="filter0_d_91_930" x="0.147705" y="66.0695" width="261.598" height="261.598" filterUnits="userSpaceOnUse" color-interpolation-filters="sRGB">
<feFlood flood-opacity="0" result="BackgroundImageFix"/>
<feColorMatrix in="SourceAlpha" type="matrix" values="0 0 0 0 0 0 0 0 0 0 0 0 0 0 0 0 0 0 127 0" result="hardAlpha"/>
<feOffset dy="4"/>
<feGaussianBlur stdDeviation="10"/>
<feComposite in2="hardAlpha" operator="out"/>
<feColorMatrix type="matrix" values="0 0 0 0 0 0 0 0 0 0 0 0 0 0 0 0 0 0 0.15 0"/>
<feBlend mode="normal" in2="BackgroundImageFix" result="effect1_dropShadow_91_930"/>
<feBlend mode="normal" in="SourceGraphic" in2="effect1_dropShadow_91_930" result="shape"/>
</filter>
<filter id="filter1_d_91_930" x="858.255" y="0.355347" width="261.598" height="261.598" filterUnits="userSpaceOnUse" color-interpolation-filters="sRGB">
<feFlood flood-opacity="0" result="BackgroundImageFix"/>
<feColorMatrix in="SourceAlpha" type="matrix" values="0 0 0 0 0 0 0 0 0 0 0 0 0 0 0 0 0 0 127 0" result="hardAlpha"/>
<feOffset dy="4"/>
<feGaussianBlur stdDeviation="10"/>
<feComposite in2="hardAlpha" operator="out"/>
<feColorMatrix type="matrix" values="0 0 0 0 0 0 0 0 0 0 0 0 0 0 0 0 0 0 0.15 0"/>
<feBlend mode="normal" in2="BackgroundImageFix" result="effect1_dropShadow_91_930"/>
<feBlend mode="normal" in="SourceGraphic" in2="effect1_dropShadow_91_930" result="shape"/>
</filter>
<filter id="filter2_d_91_930" x="179.199" y="133.943" width="346.018" height="346.018" filterUnits="userSpaceOnUse" color-interpolation-filters="sRGB">
<feFlood flood-opacity="0" result="BackgroundImageFix"/>
<feColorMatrix in="SourceAlpha" type="matrix" values="0 0 0 0 0 0 0 0 0 0 0 0 0 0 0 0 0 0 127 0" result="hardAlpha"/>
<feOffset dy="4"/>
<feGaussianBlur stdDeviation="10"/>
<feComposite in2="hardAlpha" operator="out"/>
<feColorMatrix type="matrix" values="0 0 0 0 0 0 0 0 0 0 0 0 0 0 0 0 0 0 0.15 0"/>
<feBlend mode="normal" in2="BackgroundImageFix" result="effect1_dropShadow_91_930"/>
<feBlend mode="normal" in="SourceGraphic" in2="effect1_dropShadow_91_930" result="shape"/>
</filter>
<filter id="filter3_d_91_930" x="420.803" y="287.943" width="304.81" height="304.81" filterUnits="userSpaceOnUse" color-interpolation-filters="sRGB">
<feFlood flood-opacity="0" result="BackgroundImageFix"/>
<feColorMatrix in="SourceAlpha" type="matrix" values="0 0 0 0 0 0 0 0 0 0 0 0 0 0 0 0 0 0 127 0" result="hardAlpha"/>
<feOffset dy="4"/>
<feGaussianBlur stdDeviation="10"/>
<feComposite in2="hardAlpha" operator="out"/>
<feColorMatrix type="matrix" values="0 0 0 0 0 0 0 0 0 0 0 0 0 0 0 0 0 0 0.15 0"/>
<feBlend mode="normal" in2="BackgroundImageFix" result="effect1_dropShadow_91_930"/>
<feBlend mode="normal" in="SourceGraphic" in2="effect1_dropShadow_91_930" result="shape"/>
</filter>
<filter id="filter4_d_91_930" x="591.441" y="84.9435" width="385.533" height="385.533" filterUnits="userSpaceOnUse" color-interpolation-filters="sRGB">
<feFlood flood-opacity="0" result="BackgroundImageFix"/>
<feColorMatrix in="SourceAlpha" type="matrix" values="0 0 0 0 0 0 0 0 0 0 0 0 0 0 0 0 0 0 127 0" result="hardAlpha"/>
<feOffset dy="4"/>
<feGaussianBlur stdDeviation="10"/>
<feComposite in2="hardAlpha" operator="out"/>
<feColorMatrix type="matrix" values="0 0 0 0 0 0 0 0 0 0 0 0 0 0 0 0 0 0 0.15 0"/>
<feBlend mode="normal" in2="BackgroundImageFix" result="effect1_dropShadow_91_930"/>
<feBlend mode="normal" in="SourceGraphic" in2="effect1_dropShadow_91_930" result="shape"/>
</filter>
<filter id="filter5_d_91_930" x="858.961" y="287.944" width="244.494" height="244.494" filterUnits="userSpaceOnUse" color-interpolation-filters="sRGB">
<feFlood flood-opacity="0" result="BackgroundImageFix"/>
<feColorMatrix in="SourceAlpha" type="matrix" values="0 0 0 0 0 0 0 0 0 0 0 0 0 0 0 0 0 0 127 0" result="hardAlpha"/>
<feOffset dy="4"/>
<feGaussianBlur stdDeviation="10"/>
<feComposite in2="hardAlpha" operator="out"/>
<feColorMatrix type="matrix" values="0 0 0 0 0 0 0 0 0 0 0 0 0 0 0 0 0 0 0.15 0"/>
<feBlend mode="normal" in2="BackgroundImageFix" result="effect1_dropShadow_91_930"/>
<feBlend mode="normal" in="SourceGraphic" in2="effect1_dropShadow_91_930" result="shape"/>
</filter>
</defs>
</svg>
